<svg xmlns="http://www.w3.org/2000/svg" xmlns:xlink="http://www.w3.org/1999/xlink" width="500" zoomAndPan="magnify" viewBox="0 0 375 374.999991" height="500" preserveAspectRatio="xMidYMid meet" version="1.0"><defs><g/><clipPath id="fd0f09c65c"><path d="M 78.054688 161 L 296.933594 161 L 296.933594 184.859375 L 78.054688 184.859375 Z M 78.054688 161 " clip-rule="nonzero"/></clipPath><clipPath id="dff6c84c33"><path d="M 237 174 L 275 174 L 275 184.859375 L 237 184.859375 Z M 237 174 " clip-rule="nonzero"/></clipPath><clipPath id="66cd36d3a7"><path d="M 95 174 L 133 174 L 133 184.859375 L 95 184.859375 Z M 95 174 " clip-rule="nonzero"/></clipPath><clipPath id="a1d65464e0"><path d="M 133.257812 181.792969 L 222.414062 181.792969 L 222.414062 184.859375 L 133.257812 184.859375 Z M 133.257812 181.792969 " clip-rule="nonzero"/></clipPath><clipPath id="acae320534"><path d="M 148 169 L 216 169 L 216 184.859375 L 148 184.859375 Z M 148 169 " clip-rule="nonzero"/></clipPath><clipPath id="f9eabf4ab5"><path d="M 78.054688 166.074219 L 89.628906 166.074219 L 89.628906 175 L 78.054688 175 Z M 78.054688 166.074219 " clip-rule="nonzero"/></clipPath><clipPath id="899d9733aa"><path d="M 77.652344 214.71875 L 123.402344 214.71875 L 123.402344 219 L 77.652344 219 Z M 77.652344 214.71875 " clip-rule="nonzero"/></clipPath></defs><path fill="#ffffff" d="M 274.886719 174.261719 C 275.007812 174.175781 275.171875 174.203125 275.257812 174.320312 L 275.269531 174.332031 C 275.269531 174.332031 275.457031 174.597656 275.792969 175.058594 C 275.953125 175.289062 276.179688 175.550781 276.421875 175.859375 C 276.539062 176.019531 276.683594 176.167969 276.828125 176.335938 C 276.976562 176.5 277.117188 176.679688 277.289062 176.851562 C 277.457031 177.019531 277.628906 177.203125 277.808594 177.390625 C 277.992188 177.574219 278.191406 177.753906 278.386719 177.941406 C 278.796875 178.308594 279.230469 178.695312 279.703125 179.058594 C 280.171875 179.429688 280.679688 179.78125 281.195312 180.136719 C 281.71875 180.480469 282.261719 180.8125 282.824219 181.113281 C 283.375 181.421875 283.953125 181.714844 284.511719 181.960938 C 284.648438 182.023438 284.804688 182.085938 284.953125 182.148438 C 285.066406 182.195312 285.144531 182.21875 285.246094 182.238281 C 285.4375 182.273438 285.632812 182.269531 285.816406 182.222656 C 285.863281 182.207031 285.910156 182.195312 285.953125 182.175781 C 285.996094 182.160156 286.046875 182.140625 286.070312 182.128906 C 286.085938 182.128906 286.210938 182.050781 286.222656 182.042969 L 286.414062 181.921875 C 286.671875 181.765625 286.925781 181.613281 287.171875 181.464844 C 287.796875 181.097656 288.488281 180.972656 289.101562 181.027344 C 289.433594 181.058594 289.628906 181.121094 289.859375 181.167969 C 290.078125 181.214844 290.289062 181.261719 290.484375 181.304688 C 290.878906 181.398438 291.222656 181.476562 291.503906 181.554688 C 292.066406 181.703125 292.386719 181.808594 292.386719 181.808594 C 292.480469 181.839844 292.554688 181.925781 292.5625 182.035156 C 292.574219 182.175781 292.464844 182.300781 292.324219 182.308594 C 292.324219 182.308594 291.988281 182.335938 291.40625 182.34375 C 291.117188 182.351562 290.765625 182.34375 290.359375 182.339844 C 290.15625 182.335938 289.941406 182.328125 289.714844 182.324219 C 289.496094 182.320312 289.222656 182.300781 289.0625 182.3125 C 288.6875 182.339844 288.292969 182.464844 287.957031 182.707031 C 287.730469 182.871094 287.496094 183.035156 287.253906 183.207031 L 287.070312 183.332031 C 286.957031 183.40625 286.957031 183.410156 286.835938 183.480469 C 286.726562 183.542969 286.636719 183.585938 286.539062 183.625 C 286.441406 183.667969 286.339844 183.703125 286.238281 183.734375 C 285.828125 183.851562 285.382812 183.875 284.949219 183.789062 C 284.738281 183.75 284.507812 183.675781 284.328125 183.59375 C 284.179688 183.527344 284.035156 183.46875 283.878906 183.394531 C 283.25 183.109375 282.65625 182.796875 282.0625 182.453125 C 281.472656 182.109375 280.90625 181.722656 280.359375 181.335938 C 280.09375 181.128906 279.820312 180.9375 279.570312 180.726562 C 279.320312 180.511719 279.066406 180.3125 278.835938 180.089844 C 278.359375 179.660156 277.917969 179.226562 277.53125 178.785156 C 277.339844 178.566406 277.152344 178.351562 276.976562 178.140625 C 276.808594 177.921875 276.640625 177.714844 276.488281 177.511719 C 276.332031 177.308594 276.207031 177.101562 276.074219 176.910156 C 275.949219 176.714844 275.816406 176.539062 275.71875 176.359375 C 275.515625 175.996094 275.324219 175.695312 275.199219 175.425781 C 274.941406 174.894531 274.800781 174.589844 274.800781 174.589844 C 274.75 174.476562 274.78125 174.339844 274.886719 174.261719 " fill-opacity="1" fill-rule="nonzero"/><g clip-path="url(#fd0f09c65c)"><path fill="#ffffff" d="M 87.546875 165.007812 C 84.539062 164.980469 82.171875 164.972656 80.554688 164.976562 L 80.507812 164.976562 C 79.15625 164.980469 78.054688 163.886719 78.054688 162.53125 L 78.054688 161.292969 C 78.054688 161.167969 78.15625 161.0625 78.285156 161.0625 C 78.644531 161.066406 79.421875 161.074219 80.574219 161.082031 C 82.214844 161.097656 84.621094 161.128906 87.683594 161.191406 C 88.363281 161.203125 89.078125 161.222656 89.824219 161.238281 C 89.824219 161.238281 89.84375 161.238281 89.886719 161.242188 C 90.132812 161.246094 90.378906 161.253906 90.632812 161.257812 C 96.484375 161.40625 104.132812 161.667969 113.03125 162.15625 C 118.265625 162.445312 123.9375 162.804688 129.933594 163.257812 C 131.058594 163.34375 132.195312 163.433594 133.339844 163.519531 C 133.347656 163.523438 133.359375 163.523438 133.367188 163.523438 C 133.375 163.523438 133.390625 163.523438 133.402344 163.523438 C 137.464844 163.785156 141.4375 164.058594 145.140625 164.339844 C 145.542969 164.445312 145.773438 164.5 145.789062 164.503906 L 145.875 164.523438 C 146.011719 164.53125 146.152344 164.546875 146.292969 164.554688 C 147.097656 164.601562 147.910156 164.648438 148.722656 164.695312 C 149.660156 164.757812 150.601562 164.808594 151.550781 164.859375 C 157.175781 165.167969 162.964844 165.371094 168.832031 165.554688 C 172.261719 165.648438 175.71875 165.746094 179.191406 165.808594 C 182.664062 165.890625 186.148438 165.941406 189.636719 165.996094 C 193.125 166.039062 196.613281 166.078125 200.085938 166.121094 C 203.5625 166.144531 207.023438 166.171875 210.457031 166.195312 C 217.324219 166.238281 224.082031 166.242188 230.628906 166.25 C 233.902344 166.25 237.117188 166.25 240.265625 166.246094 C 243.421875 166.25 246.492188 166.234375 249.507812 166.269531 C 255.605469 166.347656 261.363281 167.300781 266.441406 168.835938 C 271.53125 170.34375 275.980469 172.210938 279.949219 173.679688 C 280.941406 174.042969 281.902344 174.402344 282.828125 174.71875 C 283.292969 174.875 283.742188 175.039062 284.199219 175.183594 C 284.652344 175.332031 285.097656 175.472656 285.539062 175.613281 C 285.753906 175.683594 285.964844 175.753906 286.175781 175.820312 C 286.394531 175.894531 286.609375 175.964844 286.828125 176.035156 C 287.253906 176.175781 287.671875 176.3125 288.078125 176.453125 C 288.488281 176.589844 288.875 176.761719 289.261719 176.90625 C 289.644531 177.066406 290.023438 177.191406 290.375 177.371094 C 290.734375 177.539062 291.082031 177.703125 291.421875 177.859375 C 291.589844 177.9375 291.75 178.027344 291.910156 178.117188 C 292.070312 178.210938 292.230469 178.296875 292.382812 178.386719 C 292.539062 178.472656 292.691406 178.558594 292.839844 178.644531 C 292.992188 178.722656 293.128906 178.832031 293.269531 178.921875 C 293.546875 179.117188 293.820312 179.289062 294.070312 179.480469 C 295.082031 180.25 295.84375 181.097656 296.3125 181.921875 C 296.789062 182.75 296.9375 183.539062 296.933594 184.078125 C 296.933594 184.214844 296.933594 184.332031 296.917969 184.445312 C 296.917969 184.445312 296.917969 184.445312 296.917969 184.449219 C 296.875 184.71875 296.59375 184.886719 296.332031 184.800781 L 295.332031 184.46875 C 295.332031 184.46875 295.359375 184.320312 295.367188 184.277344 C 295.375 184.226562 295.371094 184.15625 295.371094 184.085938 C 295.367188 183.785156 295.285156 183.300781 294.9375 182.707031 C 294.589844 182.117188 293.984375 181.429688 293.097656 180.769531 C 292.878906 180.605469 292.628906 180.453125 292.382812 180.285156 C 292.253906 180.203125 292.136719 180.109375 291.996094 180.039062 C 291.859375 179.960938 291.714844 179.886719 291.574219 179.808594 C 291.433594 179.730469 291.289062 179.652344 291.140625 179.570312 C 290.996094 179.488281 290.847656 179.40625 290.683594 179.335938 C 290.367188 179.191406 290.042969 179.042969 289.707031 178.886719 C 289.378906 178.722656 289.011719 178.605469 288.648438 178.460938 C 288.28125 178.328125 287.914062 178.167969 287.519531 178.039062 C 287.125 177.914062 286.722656 177.785156 286.3125 177.652344 C 286.105469 177.585938 285.898438 177.519531 285.6875 177.453125 C 285.46875 177.386719 285.25 177.316406 285.027344 177.25 C 284.585938 177.113281 284.136719 176.972656 283.679688 176.835938 C 283.222656 176.691406 282.75 176.527344 282.273438 176.367188 C 281.316406 176.054688 280.34375 175.703125 279.335938 175.347656 C 275.316406 173.90625 270.875 172.097656 265.90625 170.6875 C 260.945312 169.242188 255.398438 168.390625 249.492188 168.375 C 246.511719 168.371094 243.421875 168.417969 240.277344 168.449219 C 237.128906 168.484375 233.910156 168.519531 230.636719 168.554688 C 224.09375 168.617188 217.332031 168.683594 210.457031 168.714844 C 207.019531 168.726562 203.554688 168.738281 200.074219 168.75 C 196.597656 168.746094 193.105469 168.742188 189.613281 168.734375 C 186.121094 168.71875 182.628906 168.703125 179.148438 168.660156 C 175.667969 168.632812 172.203125 168.570312 168.761719 168.511719 C 161.878906 168.371094 155.109375 168.203125 148.550781 167.867188 C 147.726562 167.828125 146.910156 167.789062 146.097656 167.75 C 145.285156 167.695312 144.472656 167.644531 143.664062 167.59375 C 142.0625 167.480469 140.445312 167.386719 138.890625 167.269531 C 137.316406 167.152344 135.765625 167.039062 134.230469 166.925781 C 132.699219 166.820312 131.1875 166.722656 129.695312 166.621094 C 123.726562 166.234375 118.070312 165.933594 112.851562 165.703125 C 103.226562 165.277344 95.074219 165.101562 89.09375 165.023438 L 87.546875 165.007812 " fill-opacity="1" fill-rule="nonzero"/></g><path fill="#ffffff" d="M 216.226562 165.09375 C 216.023438 164.9375 215.726562 164.710938 215.332031 164.421875 C 214.535156 163.832031 213.359375 162.992188 211.820312 161.980469 C 208.742188 159.960938 204.195312 157.25 198.429688 154.671875 C 195.550781 153.378906 192.351562 152.148438 188.90625 151.082031 C 187.183594 150.539062 185.390625 150.078125 183.550781 149.636719 C 181.703125 149.234375 179.808594 148.847656 177.863281 148.589844 C 177.378906 148.523438 176.890625 148.453125 176.398438 148.394531 C 175.90625 148.34375 175.414062 148.292969 174.917969 148.242188 C 174.671875 148.21875 174.425781 148.195312 174.175781 148.167969 C 173.925781 148.148438 173.675781 148.136719 173.425781 148.121094 C 172.925781 148.089844 172.421875 148.0625 171.921875 148.03125 C 171.417969 148 170.914062 148.007812 170.40625 147.992188 C 169.902344 147.988281 169.394531 147.964844 168.886719 147.980469 C 168.378906 147.992188 167.867188 148.003906 167.355469 148.019531 L 166.78125 148.03125 L 166.683594 148.035156 C 166.667969 148.035156 166.667969 148.035156 166.667969 148.035156 C 166.667969 148.035156 166.664062 148.035156 166.660156 148.035156 L 166.609375 148.039062 L 165.832031 148.097656 C 164.789062 148.167969 163.742188 148.246094 162.695312 148.320312 C 162.167969 148.359375 161.644531 148.398438 161.117188 148.433594 L 160.328125 148.492188 C 160.066406 148.515625 159.808594 148.550781 159.546875 148.578125 L 159.390625 148.59375 C 156.570312 148.925781 153.765625 149.40625 151 150.070312 C 140.378906 152.613281 133.332031 155.691406 130.265625 157.191406 C 129.980469 157.328125 129.800781 157.601562 129.785156 157.917969 C 129.769531 158.234375 129.921875 158.519531 130.1875 158.683594 C 133.757812 160.886719 139.320312 162.691406 142.746094 163.679688 C 136.53125 162.898438 112.996094 160.023438 97.691406 159.4375 C 97.523438 159.429688 97.492188 159.195312 97.65625 159.148438 C 98.011719 159.042969 98.371094 158.9375 98.742188 158.828125 C 99.988281 158.472656 101.316406 158.097656 102.714844 157.695312 C 104.121094 157.3125 105.59375 156.910156 107.132812 156.488281 C 108.671875 156.0625 110.289062 155.660156 111.953125 155.222656 C 113.617188 154.78125 115.34375 154.363281 117.121094 153.929688 C 118.011719 153.714844 118.910156 153.492188 119.824219 153.269531 C 120.738281 153.058594 121.667969 152.847656 122.601562 152.632812 C 124.476562 152.210938 126.382812 151.753906 128.34375 151.359375 C 129.320312 151.15625 130.304688 150.949219 131.296875 150.742188 C 131.792969 150.636719 132.292969 150.53125 132.792969 150.425781 C 133.292969 150.324219 133.796875 150.234375 134.300781 150.140625 C 135.3125 149.949219 136.324219 149.757812 137.347656 149.566406 C 137.859375 149.472656 138.371094 149.375 138.882812 149.28125 C 139.398438 149.179688 139.910156 149.085938 140.429688 149.003906 C 142.5 148.667969 144.589844 148.328125 146.683594 147.988281 C 148.789062 147.707031 150.902344 147.425781 153.015625 147.140625 C 155.144531 146.90625 157.28125 146.710938 159.398438 146.496094 C 159.667969 146.472656 159.933594 146.4375 160.195312 146.417969 L 160.984375 146.375 C 161.511719 146.34375 162.035156 146.3125 162.5625 146.28125 C 163.613281 146.222656 164.660156 146.164062 165.703125 146.101562 C 169.964844 145.867188 174.144531 146.171875 178.128906 146.789062 C 180.125 147.082031 182.0625 147.507812 183.949219 147.945312 C 185.828125 148.421875 187.65625 148.921875 189.40625 149.503906 C 192.910156 150.644531 196.148438 151.941406 199.054688 153.296875 C 204.878906 156 209.441406 158.8125 212.535156 160.90625 C 214.082031 161.957031 215.269531 162.828125 216.070312 163.433594 C 216.46875 163.738281 216.773438 163.980469 216.976562 164.140625 C 217.117188 164.253906 217.808594 164.769531 218.230469 165.085938 C 218.335938 165.164062 218.277344 165.328125 218.148438 165.328125 L 216.898438 165.328125 C 216.65625 165.328125 216.421875 165.25 216.230469 165.097656 C 216.230469 165.097656 216.226562 165.097656 216.226562 165.09375 " fill-opacity="1" fill-rule="nonzero"/><path fill="#ffffff" d="M 150.199219 151.40625 C 150.375 151.359375 150.554688 151.382812 150.710938 151.476562 C 150.863281 151.570312 150.972656 151.71875 151.015625 151.894531 L 153.789062 163.851562 C 153.796875 163.890625 153.789062 163.929688 153.761719 163.957031 C 153.738281 163.988281 153.707031 164.003906 153.667969 164.003906 C 153.667969 164.003906 153.664062 164.003906 153.664062 164.003906 L 147.269531 163.699219 C 146.941406 163.683594 146.671875 163.425781 146.640625 163.097656 L 145.703125 152.699219 C 145.699219 152.640625 145.738281 152.585938 145.792969 152.570312 L 150.199219 151.40625 " fill-opacity="1" fill-rule="nonzero"/><path fill="#ffffff" d="M 203.46875 163.222656 L 198.554688 162.300781 C 198.25 162.242188 198.027344 161.976562 198.027344 161.667969 L 198.027344 161.289062 C 198.027344 161 198.183594 160.730469 198.433594 160.585938 L 199.988281 159.691406 C 200.34375 159.488281 200.753906 159.378906 201.167969 159.378906 L 202.117188 159.378906 C 202.539062 159.378906 202.953125 159.492188 203.316406 159.703125 L 206.636719 161.660156 C 207.101562 161.933594 207.390625 162.4375 207.390625 162.976562 L 207.390625 163.191406 C 207.390625 163.40625 207.335938 163.621094 207.230469 163.8125 L 206.347656 165.378906 C 206.328125 165.417969 206.285156 165.441406 206.242188 165.441406 L 203.402344 165.441406 C 203.246094 165.441406 203.105469 165.363281 203.027344 165.230469 C 202.945312 165.097656 202.941406 164.933594 203.015625 164.796875 L 203.652344 163.605469 C 203.691406 163.53125 203.695312 163.441406 203.65625 163.367188 C 203.621094 163.289062 203.550781 163.234375 203.46875 163.222656 " fill-opacity="1" fill-rule="nonzero"/><g clip-path="url(#dff6c84c33)"><path fill="#ffffff" d="M 256.488281 174.75 C 264.210938 174.75 271.207031 179.011719 274.753906 185.875 C 274.824219 186.015625 274.777344 186.175781 274.644531 186.257812 C 274.511719 186.339844 274.347656 186.304688 274.253906 186.179688 C 270.347656 180.675781 263.207031 176.980469 256.488281 176.980469 C 249.394531 176.980469 242.109375 180.976562 238.359375 186.925781 C 238.300781 187.015625 238.210938 187.0625 238.113281 187.0625 C 238.066406 187.0625 238.019531 187.050781 237.972656 187.027344 C 237.832031 186.949219 237.78125 186.789062 237.847656 186.648438 C 241.203125 179.417969 248.519531 174.75 256.488281 174.75 " fill-opacity="1" fill-rule="nonzero"/></g><g clip-path="url(#66cd36d3a7)"><path fill="#ffffff" d="M 113.761719 174.421875 C 121.480469 174.421875 128.480469 178.683594 132.023438 185.550781 C 132.097656 185.6875 132.050781 185.847656 131.917969 185.929688 C 131.78125 186.011719 131.617188 185.980469 131.527344 185.851562 C 127.621094 180.347656 120.480469 176.652344 113.761719 176.652344 C 106.667969 176.652344 99.382812 180.648438 95.628906 186.597656 C 95.574219 186.6875 95.480469 186.738281 95.386719 186.738281 C 95.339844 186.738281 95.289062 186.726562 95.242188 186.699219 C 95.105469 186.625 95.050781 186.464844 95.121094 186.320312 C 98.476562 179.09375 105.792969 174.421875 113.761719 174.421875 " fill-opacity="1" fill-rule="nonzero"/></g><g clip-path="url(#a1d65464e0)"><path fill="#ffffff" d="M 133.988281 181.90625 C 133.988281 181.90625 135.1875 182.617188 137.199219 183.9375 C 138.203125 184.601562 139.414062 185.417969 140.769531 186.382812 C 142.121094 187.351562 143.625 188.472656 145.195312 189.753906 C 145.386719 189.914062 145.582031 190.070312 145.777344 190.234375 C 145.984375 190.390625 146.191406 190.550781 146.398438 190.710938 C 146.613281 190.871094 146.8125 191.046875 147.039062 191.191406 C 147.261719 191.332031 147.484375 191.480469 147.710938 191.628906 C 147.824219 191.703125 147.941406 191.773438 148.054688 191.847656 C 148.171875 191.917969 148.300781 191.984375 148.421875 192.050781 C 148.667969 192.183594 148.917969 192.320312 149.167969 192.453125 C 149.417969 192.59375 149.695312 192.695312 149.960938 192.820312 C 150.09375 192.878906 150.230469 192.9375 150.363281 192.996094 C 150.5 193.058594 150.636719 193.117188 150.78125 193.164062 C 153.027344 194.019531 155.601562 194.539062 158.304688 194.785156 C 161.007812 195.046875 163.835938 195.117188 166.707031 195.152344 C 169.582031 195.179688 172.503906 195.175781 175.425781 195.1875 C 198.800781 195.25 222.175781 195.3125 222.175781 195.3125 C 222.214844 195.3125 222.246094 195.335938 222.246094 195.371094 C 222.246094 195.402344 222.214844 195.429688 222.175781 195.429688 C 222.175781 195.429688 198.800781 195.492188 175.425781 195.554688 C 172.503906 195.558594 169.582031 195.578125 166.703125 195.5625 C 163.824219 195.542969 160.984375 195.488281 158.242188 195.238281 C 155.503906 195 152.859375 194.488281 150.527344 193.617188 C 150.378906 193.570312 150.238281 193.507812 150.097656 193.445312 C 149.960938 193.386719 149.816406 193.324219 149.679688 193.265625 C 149.402344 193.136719 149.117188 193.03125 148.855469 192.890625 C 148.59375 192.75 148.335938 192.613281 148.078125 192.476562 C 147.949219 192.40625 147.820312 192.339844 147.695312 192.269531 C 147.574219 192.191406 147.453125 192.113281 147.332031 192.035156 C 147.09375 191.882812 146.855469 191.730469 146.621094 191.578125 C 146.382812 191.425781 146.1875 191.257812 145.972656 191.097656 C 145.761719 190.9375 145.554688 190.78125 145.347656 190.625 C 145.144531 190.460938 144.945312 190.296875 144.746094 190.136719 C 143.179688 188.871094 141.679688 187.769531 140.328125 186.816406 C 138.972656 185.859375 137.761719 185.054688 136.761719 184.402344 C 135.753906 183.75 134.953125 183.25 134.40625 182.914062 C 133.855469 182.582031 133.5625 182.402344 133.5625 182.402344 L 133.558594 182.402344 C 133.394531 182.304688 133.359375 182.113281 133.476562 181.976562 C 133.59375 181.839844 133.824219 181.808594 133.988281 181.90625 " fill-opacity="1" fill-rule="nonzero"/></g><g clip-path="url(#acae320534)"><path fill="#ffffff" d="M 150.726562 180.804688 C 151.3125 182.402344 152.222656 184.054688 153.320312 185.734375 C 153.609375 186.148438 153.902344 186.570312 154.199219 186.996094 L 154.308594 187.148438 L 154.433594 187.304688 L 154.679688 187.617188 C 154.847656 187.824219 155.03125 188.015625 155.203125 188.214844 C 155.941406 189 156.804688 189.730469 157.78125 190.371094 C 158.75 191.019531 159.839844 191.574219 161.007812 192.011719 C 162.179688 192.449219 163.421875 192.769531 164.71875 192.957031 C 167.324219 193.355469 170.011719 193.5625 172.703125 193.683594 C 194.316406 194.257812 215.925781 194.832031 215.925781 194.832031 C 215.96875 194.832031 216 194.863281 216 194.898438 C 215.996094 194.929688 215.964844 194.957031 215.921875 194.957031 C 215.921875 194.957031 194.300781 194.503906 172.683594 194.050781 C 169.976562 193.945312 167.269531 193.75 164.632812 193.367188 C 163.304688 193.179688 162.007812 192.855469 160.796875 192.40625 C 159.582031 191.964844 158.453125 191.398438 157.4375 190.734375 C 156.425781 190.070312 155.523438 189.320312 154.75 188.511719 C 154.566406 188.300781 154.367188 188.09375 154.199219 187.886719 L 153.945312 187.574219 L 153.820312 187.421875 L 153.703125 187.253906 C 153.398438 186.824219 153.097656 186.398438 152.800781 185.980469 C 151.667969 184.277344 150.726562 182.597656 150.117188 180.96875 C 149.484375 179.347656 149.0625 177.816406 148.890625 176.433594 C 148.703125 175.054688 148.671875 173.839844 148.757812 172.839844 C 148.84375 171.84375 149 171.0625 149.140625 170.535156 C 149.214844 170.269531 149.269531 170.070312 149.324219 169.929688 C 149.371094 169.789062 149.398438 169.726562 149.398438 169.726562 L 149.40625 169.710938 C 149.472656 169.550781 149.6875 169.472656 149.875 169.527344 C 150.066406 169.585938 150.164062 169.761719 150.09375 169.921875 C 150.09375 169.921875 150.066406 169.992188 150.023438 170.109375 C 149.980469 170.226562 149.921875 170.421875 149.847656 170.667969 C 149.714844 171.167969 149.558594 171.917969 149.46875 172.882812 C 149.375 173.84375 149.398438 175.027344 149.566406 176.371094 C 149.722656 177.714844 150.125 179.214844 150.726562 180.804688 " fill-opacity="1" fill-rule="nonzero"/></g><g clip-path="url(#f9eabf4ab5)"><path fill="#ffffff" d="M 78.515625 172.0625 C 78.515625 172.0625 78.789062 172.105469 79.265625 172.179688 C 79.324219 172.191406 79.386719 172.199219 79.453125 172.210938 C 79.484375 172.214844 79.519531 172.222656 79.554688 172.226562 C 79.601562 172.238281 79.652344 172.25 79.699219 172.265625 C 79.890625 172.332031 80.085938 172.460938 80.226562 172.65625 C 80.296875 172.746094 80.355469 172.890625 80.382812 172.96875 C 80.414062 173.046875 80.445312 173.121094 80.480469 173.199219 C 80.550781 173.347656 80.636719 173.5 80.742188 173.640625 C 80.769531 173.675781 80.800781 173.710938 80.824219 173.738281 C 80.863281 173.785156 80.882812 173.800781 80.910156 173.832031 C 80.96875 173.882812 81.03125 173.929688 81.101562 173.96875 C 81.242188 174.046875 81.402344 174.101562 81.574219 174.109375 C 81.660156 174.117188 81.75 174.113281 81.835938 174.097656 L 81.886719 174.089844 L 81.976562 174.066406 L 82.125 174.015625 C 82.339844 173.929688 82.570312 173.871094 82.789062 173.769531 C 83 173.65625 83.226562 173.566406 83.445312 173.441406 C 83.65625 173.308594 83.875 173.183594 84.082031 173.039062 C 84.285156 172.878906 84.5 172.738281 84.699219 172.566406 C 84.890625 172.390625 85.097656 172.230469 85.285156 172.046875 C 85.664062 171.679688 86.023438 171.296875 86.355469 170.890625 C 86.519531 170.691406 86.683594 170.492188 86.832031 170.28125 C 86.988281 170.078125 87.136719 169.871094 87.277344 169.667969 C 87.5625 169.257812 87.816406 168.847656 88.042969 168.453125 C 88.15625 168.253906 88.265625 168.054688 88.355469 167.875 C 88.421875 167.757812 88.417969 167.660156 88.414062 167.679688 C 88.425781 167.695312 88.421875 167.660156 88.335938 167.597656 C 88.25 167.542969 88.125 167.484375 87.996094 167.4375 C 87.738281 167.347656 87.472656 167.273438 87.25 167.226562 C 87.027344 167.171875 86.847656 167.136719 86.722656 167.105469 C 86.601562 167.078125 86.539062 167.0625 86.539062 167.0625 L 86.527344 167.058594 C 86.433594 167.035156 86.355469 166.96875 86.320312 166.871094 C 86.265625 166.71875 86.347656 166.550781 86.5 166.496094 C 86.5 166.496094 86.574219 166.472656 86.707031 166.433594 C 86.84375 166.402344 87.039062 166.359375 87.296875 166.332031 C 87.558594 166.3125 87.875 166.289062 88.269531 166.359375 C 88.464844 166.398438 88.683594 166.449219 88.925781 166.578125 C 89.046875 166.644531 89.175781 166.730469 89.300781 166.863281 C 89.425781 166.988281 89.539062 167.171875 89.589844 167.375 C 89.640625 167.578125 89.636719 167.785156 89.601562 167.957031 C 89.582031 168.046875 89.558594 168.125 89.53125 168.199219 L 89.507812 168.257812 L 89.507812 168.265625 L 89.488281 168.3125 L 89.480469 168.320312 L 89.472656 168.339844 L 89.433594 168.417969 C 89.316406 168.636719 89.203125 168.835938 89.078125 169.050781 C 88.832031 169.472656 88.554688 169.90625 88.242188 170.339844 C 87.9375 170.777344 87.59375 171.210938 87.222656 171.632812 C 86.855469 172.058594 86.449219 172.464844 86.023438 172.851562 C 85.8125 173.046875 85.582031 173.21875 85.359375 173.402344 C 85.128906 173.578125 84.882812 173.730469 84.648438 173.890625 C 84.40625 174.046875 84.152344 174.175781 83.90625 174.3125 C 83.65625 174.441406 83.390625 174.539062 83.140625 174.648438 C 82.882812 174.746094 82.613281 174.804688 82.359375 174.882812 C 82.292969 174.898438 82.246094 174.914062 82.15625 174.9375 L 82.066406 174.953125 L 81.9375 174.96875 C 81.78125 174.980469 81.628906 174.976562 81.480469 174.957031 C 81.179688 174.917969 80.902344 174.804688 80.664062 174.644531 C 80.546875 174.5625 80.441406 174.46875 80.351562 174.367188 C 80.308594 174.320312 80.253906 174.257812 80.226562 174.21875 C 80.1875 174.164062 80.15625 174.117188 80.125 174.066406 C 79.996094 173.867188 79.902344 173.664062 79.828125 173.46875 C 79.792969 173.371094 79.761719 173.273438 79.734375 173.179688 C 79.710938 173.085938 79.707031 173.070312 79.679688 173.019531 C 79.632812 172.9375 79.5625 172.875 79.484375 172.839844 C 79.464844 172.828125 79.445312 172.820312 79.425781 172.816406 C 79.390625 172.804688 79.359375 172.796875 79.328125 172.789062 C 79.265625 172.769531 79.203125 172.753906 79.144531 172.738281 C 78.679688 172.613281 78.414062 172.539062 78.414062 172.539062 C 78.296875 172.507812 78.21875 172.390625 78.238281 172.265625 C 78.257812 172.132812 78.382812 172.042969 78.515625 172.0625 " fill-opacity="1" fill-rule="nonzero"/></g><path fill="#ffffff" d="M 86.378906 167.832031 C 86.402344 167.941406 86.328125 168.046875 86.21875 168.070312 C 86.21875 168.070312 85.800781 168.148438 85.175781 168.199219 C 84.863281 168.21875 84.5 168.242188 84.109375 168.25 L 84.003906 168.253906 C 84.003906 168.417969 84.003906 168.585938 84.003906 168.753906 C 83.996094 169.171875 83.988281 169.589844 83.972656 169.980469 C 83.960938 170.371094 83.941406 170.734375 83.921875 171.046875 C 83.898438 171.359375 83.878906 171.621094 83.867188 171.804688 C 83.847656 171.984375 83.835938 172.089844 83.835938 172.089844 C 83.828125 172.191406 83.746094 172.277344 83.640625 172.289062 C 83.515625 172.300781 83.410156 172.210938 83.398438 172.089844 C 83.398438 172.089844 83.386719 171.984375 83.367188 171.804688 C 83.355469 171.621094 83.335938 171.359375 83.308594 171.046875 C 83.292969 170.734375 83.273438 170.371094 83.257812 169.980469 C 83.242188 169.589844 83.234375 169.171875 83.230469 168.753906 L 83.230469 168.171875 L 83.234375 168.125 C 83.238281 168.089844 83.246094 168.058594 83.253906 168.035156 C 83.304688 167.824219 83.457031 167.648438 83.648438 167.558594 C 83.742188 167.511719 83.847656 167.488281 83.949219 167.484375 C 84.003906 167.488281 84.054688 167.488281 84.109375 167.488281 C 84.5 167.496094 84.863281 167.519531 85.175781 167.542969 C 85.800781 167.589844 86.21875 167.671875 86.21875 167.671875 C 86.296875 167.6875 86.363281 167.746094 86.378906 167.832031 " fill-opacity="1" fill-rule="nonzero"/><g clip-path="url(#899d9733aa)"><path fill="#ffffff" d="M 122.9375 217.941406 C 116.148438 215.8125 110.582031 214.746094 106.242188 214.746094 C 103.949219 214.746094 101.300781 215.058594 98.289062 215.683594 C 97.839844 215.765625 95.429688 216.332031 91.058594 217.390625 C 88.492188 218.015625 86.613281 218.328125 85.410156 218.328125 C 82.992188 218.328125 80.589844 217.367188 78.203125 215.445312 C 78.140625 215.394531 78.074219 215.371094 78.011719 215.371094 C 77.769531 215.371094 77.652344 215.484375 77.652344 215.707031 C 77.652344 215.789062 77.691406 215.859375 77.769531 215.925781 C 80.1875 217.957031 82.914062 218.976562 85.941406 218.976562 C 88.003906 218.976562 90.214844 218.757812 92.570312 218.328125 C 94.652344 217.925781 96.726562 217.519531 98.792969 217.101562 C 101.417969 216.667969 104.0625 216.453125 106.722656 216.453125 C 112.871094 216.453125 118.214844 217.15625 122.746094 218.566406 C 123.035156 218.648438 123.179688 218.535156 123.179688 218.230469 C 123.179688 218.085938 123.097656 217.992188 122.9375 217.941406 Z M 122.9375 217.941406 " fill-opacity="1" fill-rule="nonzero"/></g><g fill="#ffffff" fill-opacity="1"><g transform="translate(80.759617, 200.52176)"><g><path d="M 11.609375 -2.40625 L 11.609375 0 L 0.875 0 L 0.875 -12.1875 L 3.265625 -12.1875 L 3.265625 -2.40625 Z M 11.609375 -2.40625 "/></g></g></g><g fill="#ffffff" fill-opacity="1"><g transform="translate(93.219703, 200.52176)"><g><path d="M 14.109375 0 L 11.484375 0 L 10.203125 -2.890625 L 4.78125 -2.890625 L 3.5 0 L 0.875 0 L 6.328125 -12.203125 L 8.65625 -12.203125 Z M 7.5 -8.90625 L 5.859375 -5.296875 L 9.125 -5.296875 Z M 7.5 -8.90625 "/></g></g></g><g fill="#ffffff" fill-opacity="1"><g transform="translate(108.203131, 200.52176)"><g><path d="M 11.609375 -2.40625 L 11.609375 0 L 0.875 0 L 0.875 -12.1875 L 3.265625 -12.1875 L 3.265625 -2.40625 Z M 11.609375 -2.40625 "/></g></g></g><g fill="#ffffff" fill-opacity="1"><g transform="translate(120.663217, 200.52176)"><g><path d="M 6.96875 -12.1875 C 7.800781 -12.1875 8.585938 -12.03125 9.328125 -11.71875 C 10.066406 -11.394531 10.71875 -10.957031 11.28125 -10.40625 C 11.820312 -9.851562 12.253906 -9.203125 12.578125 -8.453125 C 12.890625 -7.710938 13.046875 -6.925781 13.046875 -6.09375 C 13.046875 -5.257812 12.890625 -4.46875 12.578125 -3.71875 C 12.253906 -2.976562 11.820312 -2.335938 11.28125 -1.796875 C 10.71875 -1.234375 10.066406 -0.796875 9.328125 -0.484375 C 8.585938 -0.160156 7.800781 0 6.96875 0 C 6.125 0 5.332031 -0.160156 4.59375 -0.484375 C 3.851562 -0.796875 3.207031 -1.234375 2.65625 -1.796875 C 2.101562 -2.335938 1.671875 -2.976562 1.359375 -3.71875 C 1.035156 -4.46875 0.875 -5.257812 0.875 -6.09375 C 0.875 -6.925781 1.035156 -7.710938 1.359375 -8.453125 C 1.671875 -9.203125 2.101562 -9.851562 2.65625 -10.40625 C 3.207031 -10.957031 3.851562 -11.394531 4.59375 -11.71875 C 5.332031 -12.03125 6.125 -12.1875 6.96875 -12.1875 Z M 10.65625 -6.09375 C 10.65625 -6.601562 10.5625 -7.082031 10.375 -7.53125 C 10.175781 -7.976562 9.910156 -8.367188 9.578125 -8.703125 C 9.234375 -9.035156 8.84375 -9.300781 8.40625 -9.5 C 7.957031 -9.6875 7.476562 -9.78125 6.96875 -9.78125 C 6.457031 -9.78125 5.976562 -9.6875 5.53125 -9.5 C 5.082031 -9.300781 4.6875 -9.035156 4.34375 -8.703125 C 4.007812 -8.367188 3.75 -7.976562 3.5625 -7.53125 C 3.363281 -7.082031 3.265625 -6.601562 3.265625 -6.09375 C 3.265625 -5.582031 3.363281 -5.109375 3.5625 -4.671875 C 3.75 -4.210938 4.007812 -3.816406 4.34375 -3.484375 C 4.6875 -3.140625 5.082031 -2.878906 5.53125 -2.703125 C 5.976562 -2.503906 6.457031 -2.40625 6.96875 -2.40625 C 7.476562 -2.40625 7.957031 -2.503906 8.40625 -2.703125 C 8.84375 -2.878906 9.234375 -3.140625 9.578125 -3.484375 C 9.910156 -3.816406 10.175781 -4.210938 10.375 -4.671875 C 10.5625 -5.109375 10.65625 -5.582031 10.65625 -6.09375 Z M 10.65625 -6.09375 "/></g></g></g><g fill="#ffffff" fill-opacity="1"><g transform="translate(134.567697, 200.52176)"><g><path d="M 12.421875 0 L 9.40625 0 L 6.21875 -4.34375 L 3.265625 -4.34375 L 3.265625 0 L 0.875 0 L 0.875 -12.1875 L 7.46875 -12.1875 C 8.789062 -12.1875 9.867188 -11.796875 10.703125 -11.015625 C 11.078125 -10.660156 11.367188 -10.25 11.578125 -9.78125 C 11.773438 -9.320312 11.875 -8.828125 11.875 -8.296875 C 11.875 -7.773438 11.773438 -7.285156 11.578125 -6.828125 C 11.367188 -6.347656 11.070312 -5.921875 10.6875 -5.546875 C 10.238281 -5.097656 9.6875 -4.773438 9.03125 -4.578125 Z M 9.46875 -8.296875 C 9.46875 -8.472656 9.429688 -8.65625 9.359375 -8.84375 C 9.296875 -9.019531 9.1875 -9.179688 9.03125 -9.328125 C 8.875 -9.460938 8.664062 -9.578125 8.40625 -9.671875 C 8.15625 -9.753906 7.84375 -9.796875 7.46875 -9.796875 L 3.265625 -9.796875 L 3.265625 -6.75 L 7.46875 -6.75 C 7.8125 -6.75 8.113281 -6.796875 8.375 -6.890625 C 8.613281 -6.984375 8.816406 -7.109375 8.984375 -7.265625 C 9.140625 -7.398438 9.257812 -7.5625 9.34375 -7.75 C 9.425781 -7.9375 9.46875 -8.117188 9.46875 -8.296875 Z M 9.46875 -8.296875 "/></g></g></g><g fill="#ffffff" fill-opacity="1"><g transform="translate(147.845692, 200.52176)"><g/></g></g><g fill="#ffffff" fill-opacity="1"><g transform="translate(154.528194, 200.52176)"><g><path d="M 14.109375 0 L 11.484375 0 L 10.203125 -2.890625 L 4.78125 -2.890625 L 3.5 0 L 0.875 0 L 6.328125 -12.203125 L 8.65625 -12.203125 Z M 7.5 -8.90625 L 5.859375 -5.296875 L 9.125 -5.296875 Z M 7.5 -8.90625 "/></g></g></g><g fill="#ffffff" fill-opacity="1"><g transform="translate(169.511622, 200.52176)"><g><path d="M 12.703125 -12.1875 L 12.703125 -3.671875 C 12.703125 -3.160156 12.609375 -2.6875 12.421875 -2.25 C 12.222656 -1.800781 11.957031 -1.410156 11.625 -1.078125 C 11.289062 -0.742188 10.90625 -0.484375 10.46875 -0.296875 C 10.007812 -0.0976562 9.53125 0 9.03125 0 L 4.546875 0 C 4.035156 0 3.554688 -0.0976562 3.109375 -0.296875 C 2.671875 -0.484375 2.285156 -0.742188 1.953125 -1.078125 C 1.609375 -1.410156 1.347656 -1.800781 1.171875 -2.25 C 0.972656 -2.6875 0.875 -3.160156 0.875 -3.671875 L 0.875 -12.1875 L 3.265625 -12.1875 L 3.265625 -3.671875 C 3.265625 -3.328125 3.394531 -3.03125 3.65625 -2.78125 C 3.894531 -2.53125 4.191406 -2.40625 4.546875 -2.40625 L 9.03125 -2.40625 C 9.382812 -2.40625 9.6875 -2.53125 9.9375 -2.78125 C 10.175781 -3.03125 10.296875 -3.328125 10.296875 -3.671875 L 10.296875 -12.1875 Z M 12.703125 -12.1875 "/></g></g></g><g fill="#ffffff" fill-opacity="1"><g transform="translate(183.068052, 200.52176)"><g><path d="M 12.3125 -12.1875 L 12.3125 -9.796875 L 7.78125 -9.796875 L 7.78125 0 L 5.390625 0 L 5.390625 -9.796875 L 0.875 -9.796875 L 0.875 -12.1875 Z M 12.3125 -12.1875 "/></g></g></g><g fill="#ffffff" fill-opacity="1"><g transform="translate(196.241632, 200.52176)"><g><path d="M 6.96875 -12.1875 C 7.800781 -12.1875 8.585938 -12.03125 9.328125 -11.71875 C 10.066406 -11.394531 10.71875 -10.957031 11.28125 -10.40625 C 11.820312 -9.851562 12.253906 -9.203125 12.578125 -8.453125 C 12.890625 -7.710938 13.046875 -6.925781 13.046875 -6.09375 C 13.046875 -5.257812 12.890625 -4.46875 12.578125 -3.71875 C 12.253906 -2.976562 11.820312 -2.335938 11.28125 -1.796875 C 10.71875 -1.234375 10.066406 -0.796875 9.328125 -0.484375 C 8.585938 -0.160156 7.800781 0 6.96875 0 C 6.125 0 5.332031 -0.160156 4.59375 -0.484375 C 3.851562 -0.796875 3.207031 -1.234375 2.65625 -1.796875 C 2.101562 -2.335938 1.671875 -2.976562 1.359375 -3.71875 C 1.035156 -4.46875 0.875 -5.257812 0.875 -6.09375 C 0.875 -6.925781 1.035156 -7.710938 1.359375 -8.453125 C 1.671875 -9.203125 2.101562 -9.851562 2.65625 -10.40625 C 3.207031 -10.957031 3.851562 -11.394531 4.59375 -11.71875 C 5.332031 -12.03125 6.125 -12.1875 6.96875 -12.1875 Z M 10.65625 -6.09375 C 10.65625 -6.601562 10.5625 -7.082031 10.375 -7.53125 C 10.175781 -7.976562 9.910156 -8.367188 9.578125 -8.703125 C 9.234375 -9.035156 8.84375 -9.300781 8.40625 -9.5 C 7.957031 -9.6875 7.476562 -9.78125 6.96875 -9.78125 C 6.457031 -9.78125 5.976562 -9.6875 5.53125 -9.5 C 5.082031 -9.300781 4.6875 -9.035156 4.34375 -8.703125 C 4.007812 -8.367188 3.75 -7.976562 3.5625 -7.53125 C 3.363281 -7.082031 3.265625 -6.601562 3.265625 -6.09375 C 3.265625 -5.582031 3.363281 -5.109375 3.5625 -4.671875 C 3.75 -4.210938 4.007812 -3.816406 4.34375 -3.484375 C 4.6875 -3.140625 5.082031 -2.878906 5.53125 -2.703125 C 5.976562 -2.503906 6.457031 -2.40625 6.96875 -2.40625 C 7.476562 -2.40625 7.957031 -2.503906 8.40625 -2.703125 C 8.84375 -2.878906 9.234375 -3.140625 9.578125 -3.484375 C 9.910156 -3.816406 10.175781 -4.210938 10.375 -4.671875 C 10.5625 -5.109375 10.65625 -5.582031 10.65625 -6.09375 Z M 10.65625 -6.09375 "/></g></g></g><g fill="#ffffff" fill-opacity="1"><g transform="translate(210.146111, 200.52176)"><g><path d="M 13.21875 -12.1875 L 13.21875 0 L 10.828125 0 L 10.828125 -9.125 L 7.046875 -6.125 L 3.265625 -9.125 L 3.265625 0 L 0.875 0 L 0.875 -12.1875 L 3.25 -12.1875 L 7.046875 -9.1875 L 10.84375 -12.1875 Z M 13.21875 -12.1875 "/></g></g></g><g fill="#ffffff" fill-opacity="1"><g transform="translate(224.224609, 200.52176)"><g><path d="M 6.96875 -12.1875 C 7.800781 -12.1875 8.585938 -12.03125 9.328125 -11.71875 C 10.066406 -11.394531 10.71875 -10.957031 11.28125 -10.40625 C 11.820312 -9.851562 12.253906 -9.203125 12.578125 -8.453125 C 12.890625 -7.710938 13.046875 -6.925781 13.046875 -6.09375 C 13.046875 -5.257812 12.890625 -4.46875 12.578125 -3.71875 C 12.253906 -2.976562 11.820312 -2.335938 11.28125 -1.796875 C 10.71875 -1.234375 10.066406 -0.796875 9.328125 -0.484375 C 8.585938 -0.160156 7.800781 0 6.96875 0 C 6.125 0 5.332031 -0.160156 4.59375 -0.484375 C 3.851562 -0.796875 3.207031 -1.234375 2.65625 -1.796875 C 2.101562 -2.335938 1.671875 -2.976562 1.359375 -3.71875 C 1.035156 -4.46875 0.875 -5.257812 0.875 -6.09375 C 0.875 -6.925781 1.035156 -7.710938 1.359375 -8.453125 C 1.671875 -9.203125 2.101562 -9.851562 2.65625 -10.40625 C 3.207031 -10.957031 3.851562 -11.394531 4.59375 -11.71875 C 5.332031 -12.03125 6.125 -12.1875 6.96875 -12.1875 Z M 10.65625 -6.09375 C 10.65625 -6.601562 10.5625 -7.082031 10.375 -7.53125 C 10.175781 -7.976562 9.910156 -8.367188 9.578125 -8.703125 C 9.234375 -9.035156 8.84375 -9.300781 8.40625 -9.5 C 7.957031 -9.6875 7.476562 -9.78125 6.96875 -9.78125 C 6.457031 -9.78125 5.976562 -9.6875 5.53125 -9.5 C 5.082031 -9.300781 4.6875 -9.035156 4.34375 -8.703125 C 4.007812 -8.367188 3.75 -7.976562 3.5625 -7.53125 C 3.363281 -7.082031 3.265625 -6.601562 3.265625 -6.09375 C 3.265625 -5.582031 3.363281 -5.109375 3.5625 -4.671875 C 3.75 -4.210938 4.007812 -3.816406 4.34375 -3.484375 C 4.6875 -3.140625 5.082031 -2.878906 5.53125 -2.703125 C 5.976562 -2.503906 6.457031 -2.40625 6.96875 -2.40625 C 7.476562 -2.40625 7.957031 -2.503906 8.40625 -2.703125 C 8.84375 -2.878906 9.234375 -3.140625 9.578125 -3.484375 C 9.910156 -3.816406 10.175781 -4.210938 10.375 -4.671875 C 10.5625 -5.109375 10.65625 -5.582031 10.65625 -6.09375 Z M 10.65625 -6.09375 "/></g></g></g><g fill="#ffffff" fill-opacity="1"><g transform="translate(238.129088, 200.52176)"><g><path d="M 11.265625 -6.265625 C 11.660156 -5.929688 11.960938 -5.539062 12.171875 -5.09375 C 12.378906 -4.65625 12.484375 -4.1875 12.484375 -3.6875 C 12.484375 -3.238281 12.390625 -2.789062 12.203125 -2.34375 C 12.015625 -1.90625 11.734375 -1.515625 11.359375 -1.171875 C 10.992188 -0.816406 10.535156 -0.535156 9.984375 -0.328125 C 9.429688 -0.109375 8.796875 0 8.078125 0 L 0.875 0 L 0.875 -12.203125 L 7.46875 -12.203125 C 8.769531 -12.203125 9.832031 -11.851562 10.65625 -11.15625 C 11.050781 -10.820312 11.351562 -10.429688 11.5625 -9.984375 C 11.769531 -9.546875 11.875 -9.078125 11.875 -8.578125 C 11.875 -7.773438 11.609375 -7.054688 11.078125 -6.421875 C 11.109375 -6.398438 11.140625 -6.378906 11.171875 -6.359375 C 11.191406 -6.316406 11.222656 -6.285156 11.265625 -6.265625 Z M 7.46875 -7.328125 C 8.164062 -7.328125 8.675781 -7.460938 9 -7.734375 C 9.3125 -7.992188 9.46875 -8.273438 9.46875 -8.578125 C 9.46875 -8.878906 9.3125 -9.160156 9 -9.421875 C 8.675781 -9.671875 8.164062 -9.796875 7.46875 -9.796875 L 3.265625 -9.796875 L 3.265625 -7.328125 Z M 3.265625 -2.40625 L 8.078125 -2.40625 C 8.765625 -2.40625 9.269531 -2.539062 9.59375 -2.8125 C 9.914062 -3.082031 10.078125 -3.375 10.078125 -3.6875 C 10.078125 -3.988281 9.921875 -4.273438 9.609375 -4.546875 C 9.285156 -4.796875 8.773438 -4.921875 8.078125 -4.921875 L 3.265625 -4.921875 Z M 3.265625 -2.40625 "/></g></g></g><g fill="#ffffff" fill-opacity="1"><g transform="translate(251.476687, 200.52176)"><g><path d="M 0.875 0 L 0.875 -12.1875 L 3.265625 -12.1875 L 3.265625 0 Z M 0.875 0 "/></g></g></g><g fill="#ffffff" fill-opacity="1"><g transform="translate(255.618441, 200.52176)"><g><path d="M 11.609375 -2.40625 L 11.609375 0 L 0.875 0 L 0.875 -12.1875 L 3.265625 -12.1875 L 3.265625 -2.40625 Z M 11.609375 -2.40625 "/></g></g></g><g fill="#ffffff" fill-opacity="1"><g transform="translate(268.078527, 200.52176)"><g><path d="M 3.265625 -9.796875 L 3.265625 -7.296875 L 9.375 -7.296875 L 9.375 -4.90625 L 3.265625 -4.90625 L 3.265625 -2.40625 L 12.03125 -2.40625 L 12.03125 0 L 0.875 0 L 0.875 -12.203125 L 12.03125 -12.203125 L 12.03125 -9.796875 Z M 3.265625 -9.796875 "/></g></g></g><g fill="#ffffff" fill-opacity="1"><g transform="translate(280.973671, 200.52176)"><g><path d="M 9.984375 -7.625 L 9.984375 -8.8125 C 9.984375 -9.070312 9.894531 -9.300781 9.71875 -9.5 C 9.519531 -9.695312 9.285156 -9.796875 9.015625 -9.796875 L 4.25 -9.796875 C 3.976562 -9.796875 3.75 -9.695312 3.5625 -9.5 C 3.363281 -9.300781 3.265625 -9.070312 3.265625 -8.8125 L 3.265625 -8.265625 C 3.265625 -8.003906 3.363281 -7.78125 3.5625 -7.59375 C 3.75 -7.394531 3.976562 -7.296875 4.25 -7.296875 L 9.015625 -7.296875 C 9.484375 -7.296875 9.921875 -7.207031 10.328125 -7.03125 C 10.734375 -6.84375 11.085938 -6.597656 11.390625 -6.296875 C 11.691406 -5.992188 11.929688 -5.640625 12.109375 -5.234375 C 12.285156 -4.816406 12.375 -4.378906 12.375 -3.921875 L 12.375 -3.375 C 12.375 -2.914062 12.285156 -2.484375 12.109375 -2.078125 C 11.929688 -1.648438 11.691406 -1.285156 11.390625 -0.984375 C 11.085938 -0.691406 10.734375 -0.457031 10.328125 -0.28125 C 9.921875 -0.09375 9.484375 0 9.015625 0 L 4.25 0 C 3.78125 0 3.34375 -0.09375 2.9375 -0.28125 C 2.519531 -0.457031 2.160156 -0.691406 1.859375 -0.984375 C 1.554688 -1.285156 1.320312 -1.648438 1.15625 -2.078125 C 0.96875 -2.484375 0.875 -2.914062 0.875 -3.375 L 0.875 -4.578125 L 3.265625 -4.578125 L 3.265625 -3.375 C 3.265625 -3.101562 3.363281 -2.878906 3.5625 -2.703125 C 3.75 -2.503906 3.976562 -2.40625 4.25 -2.40625 L 9.015625 -2.40625 C 9.285156 -2.40625 9.519531 -2.503906 9.71875 -2.703125 C 9.894531 -2.878906 9.984375 -3.101562 9.984375 -3.375 L 9.984375 -3.921875 C 9.984375 -4.179688 9.894531 -4.410156 9.71875 -4.609375 C 9.519531 -4.796875 9.285156 -4.890625 9.015625 -4.890625 L 4.25 -4.890625 C 3.78125 -4.890625 3.34375 -4.984375 2.9375 -5.171875 C 2.519531 -5.347656 2.160156 -5.585938 1.859375 -5.890625 C 1.554688 -6.179688 1.320312 -6.539062 1.15625 -6.96875 C 0.96875 -7.375 0.875 -7.804688 0.875 -8.265625 L 0.875 -8.8125 C 0.875 -9.269531 0.96875 -9.707031 1.15625 -10.125 C 1.320312 -10.53125 1.554688 -10.882812 1.859375 -11.1875 C 2.160156 -11.488281 2.519531 -11.734375 2.9375 -11.921875 C 3.34375 -12.097656 3.78125 -12.1875 4.25 -12.1875 L 9.015625 -12.1875 C 9.484375 -12.1875 9.921875 -12.097656 10.328125 -11.921875 C 10.734375 -11.734375 11.085938 -11.488281 11.390625 -11.1875 C 11.691406 -10.882812 11.929688 -10.53125 12.109375 -10.125 C 12.285156 -9.707031 12.375 -9.269531 12.375 -8.8125 L 12.375 -7.625 Z M 9.984375 -7.625 "/></g></g></g><g fill="#ffffff" fill-opacity="1"><g transform="translate(130.953217, 220.39711)"><g><path d="M 0.453125 0 L 0.453125 -6.234375 L 1.671875 -6.234375 L 1.671875 0 Z M 0.453125 0 "/></g></g></g><g fill="#ffffff" fill-opacity="1"><g transform="translate(133.071318, 220.39711)"><g><path d="M 6.765625 -6.234375 L 6.765625 0 L 5.546875 0 L 5.546875 -4.671875 L 3.609375 -3.140625 L 1.671875 -4.671875 L 1.671875 0 L 0.453125 0 L 0.453125 -6.234375 L 1.671875 -6.234375 L 3.609375 -4.703125 L 5.546875 -6.234375 Z M 6.765625 -6.234375 "/></g></g></g><g fill="#ffffff" fill-opacity="1"><g transform="translate(140.271086, 220.39711)"><g><path d="M 5.484375 -5.640625 C 5.671875 -5.453125 5.816406 -5.238281 5.921875 -5 C 6.023438 -4.769531 6.078125 -4.519531 6.078125 -4.25 C 6.078125 -3.976562 6.023438 -3.722656 5.921875 -3.484375 C 5.816406 -3.242188 5.664062 -3.03125 5.46875 -2.84375 C 5.050781 -2.4375 4.503906 -2.234375 3.828125 -2.234375 L 1.671875 -2.234375 L 1.671875 0 L 0.453125 0 L 0.453125 -6.234375 L 3.828125 -6.234375 C 4.503906 -6.234375 5.054688 -6.035156 5.484375 -5.640625 Z M 4.84375 -4.25 C 4.84375 -4.332031 4.828125 -4.425781 4.796875 -4.53125 C 4.753906 -4.613281 4.695312 -4.695312 4.625 -4.78125 C 4.539062 -4.84375 4.429688 -4.898438 4.296875 -4.953125 C 4.171875 -4.992188 4.015625 -5.015625 3.828125 -5.015625 L 1.671875 -5.015625 L 1.671875 -3.453125 L 3.828125 -3.453125 C 4.003906 -3.453125 4.15625 -3.476562 4.28125 -3.53125 C 4.40625 -3.570312 4.507812 -3.632812 4.59375 -3.71875 C 4.675781 -3.789062 4.738281 -3.875 4.78125 -3.96875 C 4.820312 -4.0625 4.84375 -4.15625 4.84375 -4.25 Z M 4.84375 -4.25 "/></g></g></g><g fill="#ffffff" fill-opacity="1"><g transform="translate(146.785582, 220.39711)"><g><path d="M 3.5625 -6.234375 C 3.988281 -6.234375 4.394531 -6.15625 4.78125 -6 C 5.15625 -5.832031 5.484375 -5.609375 5.765625 -5.328125 C 6.046875 -5.046875 6.269531 -4.710938 6.4375 -4.328125 C 6.601562 -3.953125 6.6875 -3.550781 6.6875 -3.125 C 6.6875 -2.6875 6.601562 -2.28125 6.4375 -1.90625 C 6.269531 -1.53125 6.046875 -1.203125 5.765625 -0.921875 C 5.484375 -0.628906 5.15625 -0.40625 4.78125 -0.25 C 4.394531 -0.0820312 3.988281 0 3.5625 0 C 3.132812 0 2.726562 -0.0820312 2.34375 -0.25 C 1.96875 -0.40625 1.640625 -0.628906 1.359375 -0.921875 C 1.078125 -1.203125 0.851562 -1.53125 0.6875 -1.90625 C 0.53125 -2.28125 0.453125 -2.6875 0.453125 -3.125 C 0.453125 -3.550781 0.53125 -3.953125 0.6875 -4.328125 C 0.851562 -4.710938 1.078125 -5.046875 1.359375 -5.328125 C 1.640625 -5.609375 1.96875 -5.832031 2.34375 -6 C 2.726562 -6.15625 3.132812 -6.234375 3.5625 -6.234375 Z M 5.453125 -3.125 C 5.453125 -3.382812 5.40625 -3.628906 5.3125 -3.859375 C 5.207031 -4.078125 5.070312 -4.273438 4.90625 -4.453125 C 4.726562 -4.628906 4.523438 -4.765625 4.296875 -4.859375 C 4.066406 -4.953125 3.820312 -5 3.5625 -5 C 3.300781 -5 3.054688 -4.953125 2.828125 -4.859375 C 2.597656 -4.765625 2.398438 -4.628906 2.234375 -4.453125 C 2.054688 -4.273438 1.921875 -4.078125 1.828125 -3.859375 C 1.722656 -3.628906 1.671875 -3.382812 1.671875 -3.125 C 1.671875 -2.851562 1.722656 -2.609375 1.828125 -2.390625 C 1.921875 -2.160156 2.054688 -1.957031 2.234375 -1.78125 C 2.398438 -1.601562 2.597656 -1.46875 2.828125 -1.375 C 3.054688 -1.28125 3.300781 -1.234375 3.5625 -1.234375 C 3.820312 -1.234375 4.066406 -1.28125 4.296875 -1.375 C 4.523438 -1.46875 4.726562 -1.601562 4.90625 -1.78125 C 5.070312 -1.957031 5.207031 -2.160156 5.3125 -2.390625 C 5.40625 -2.609375 5.453125 -2.851562 5.453125 -3.125 Z M 5.453125 -3.125 "/></g></g></g><g fill="#ffffff" fill-opacity="1"><g transform="translate(153.896359, 220.39711)"><g><path d="M 6.359375 0 L 4.8125 0 L 3.171875 -2.234375 L 1.671875 -2.234375 L 1.671875 0 L 0.453125 0 L 0.453125 -6.234375 L 3.828125 -6.234375 C 4.503906 -6.234375 5.054688 -6.035156 5.484375 -5.640625 C 5.671875 -5.453125 5.816406 -5.238281 5.921875 -5 C 6.023438 -4.769531 6.078125 -4.519531 6.078125 -4.25 C 6.078125 -3.976562 6.023438 -3.722656 5.921875 -3.484375 C 5.816406 -3.242188 5.664062 -3.03125 5.46875 -2.84375 C 5.238281 -2.613281 4.957031 -2.445312 4.625 -2.34375 Z M 4.84375 -4.25 C 4.84375 -4.332031 4.828125 -4.425781 4.796875 -4.53125 C 4.753906 -4.613281 4.695312 -4.695312 4.625 -4.78125 C 4.539062 -4.84375 4.429688 -4.898438 4.296875 -4.953125 C 4.171875 -4.992188 4.015625 -5.015625 3.828125 -5.015625 L 1.671875 -5.015625 L 1.671875 -3.453125 L 3.828125 -3.453125 C 4.003906 -3.453125 4.15625 -3.476562 4.28125 -3.53125 C 4.40625 -3.570312 4.507812 -3.632812 4.59375 -3.71875 C 4.675781 -3.789062 4.738281 -3.875 4.78125 -3.96875 C 4.820312 -4.0625 4.84375 -4.15625 4.84375 -4.25 Z M 4.84375 -4.25 "/></g></g></g><g fill="#ffffff" fill-opacity="1"><g transform="translate(160.686747, 220.39711)"><g><path d="M 6.296875 -6.234375 L 6.296875 -5.015625 L 3.984375 -5.015625 L 3.984375 0 L 2.765625 0 L 2.765625 -5.015625 L 0.453125 -5.015625 L 0.453125 -6.234375 Z M 6.296875 -6.234375 "/></g></g></g><g fill="#ffffff" fill-opacity="1"><g transform="translate(167.423734, 220.39711)"><g><path d="M 1.671875 -5.015625 L 1.671875 -3.734375 L 4.796875 -3.734375 L 4.796875 -2.515625 L 1.671875 -2.515625 L 1.671875 -1.234375 L 6.15625 -1.234375 L 6.15625 0 L 0.453125 0 L 0.453125 -6.25 L 6.15625 -6.25 L 6.15625 -5.015625 Z M 1.671875 -5.015625 "/></g></g></g><g fill="#ffffff" fill-opacity="1"><g transform="translate(174.018327, 220.39711)"><g><path d="M 6.359375 0 L 4.8125 0 L 3.171875 -2.234375 L 1.671875 -2.234375 L 1.671875 0 L 0.453125 0 L 0.453125 -6.234375 L 3.828125 -6.234375 C 4.503906 -6.234375 5.054688 -6.035156 5.484375 -5.640625 C 5.671875 -5.453125 5.816406 -5.238281 5.921875 -5 C 6.023438 -4.769531 6.078125 -4.519531 6.078125 -4.25 C 6.078125 -3.976562 6.023438 -3.722656 5.921875 -3.484375 C 5.816406 -3.242188 5.664062 -3.03125 5.46875 -2.84375 C 5.238281 -2.613281 4.957031 -2.445312 4.625 -2.34375 Z M 4.84375 -4.25 C 4.84375 -4.332031 4.828125 -4.425781 4.796875 -4.53125 C 4.753906 -4.613281 4.695312 -4.695312 4.625 -4.78125 C 4.539062 -4.84375 4.429688 -4.898438 4.296875 -4.953125 C 4.171875 -4.992188 4.015625 -5.015625 3.828125 -5.015625 L 1.671875 -5.015625 L 1.671875 -3.453125 L 3.828125 -3.453125 C 4.003906 -3.453125 4.15625 -3.476562 4.28125 -3.53125 C 4.40625 -3.570312 4.507812 -3.632812 4.59375 -3.71875 C 4.675781 -3.789062 4.738281 -3.875 4.78125 -3.96875 C 4.820312 -4.0625 4.84375 -4.15625 4.84375 -4.25 Z M 4.84375 -4.25 "/></g></g></g><g fill="#ffffff" fill-opacity="1"><g transform="translate(180.808715, 220.39711)"><g/></g></g><g fill="#ffffff" fill-opacity="1"><g transform="translate(184.226157, 220.39711)"><g><path d="M 3.5625 -6.234375 C 3.988281 -6.234375 4.394531 -6.15625 4.78125 -6 C 5.15625 -5.832031 5.484375 -5.609375 5.765625 -5.328125 C 6.046875 -5.046875 6.269531 -4.710938 6.4375 -4.328125 C 6.601562 -3.953125 6.6875 -3.550781 6.6875 -3.125 C 6.6875 -2.6875 6.601562 -2.28125 6.4375 -1.90625 C 6.269531 -1.53125 6.046875 -1.203125 5.765625 -0.921875 C 5.484375 -0.628906 5.15625 -0.40625 4.78125 -0.25 C 4.394531 -0.0820312 3.988281 0 3.5625 0 C 3.132812 0 2.726562 -0.0820312 2.34375 -0.25 C 1.96875 -0.40625 1.640625 -0.628906 1.359375 -0.921875 C 1.078125 -1.203125 0.851562 -1.53125 0.6875 -1.90625 C 0.53125 -2.28125 0.453125 -2.6875 0.453125 -3.125 C 0.453125 -3.550781 0.53125 -3.953125 0.6875 -4.328125 C 0.851562 -4.710938 1.078125 -5.046875 1.359375 -5.328125 C 1.640625 -5.609375 1.96875 -5.832031 2.34375 -6 C 2.726562 -6.15625 3.132812 -6.234375 3.5625 -6.234375 Z M 5.453125 -3.125 C 5.453125 -3.382812 5.40625 -3.628906 5.3125 -3.859375 C 5.207031 -4.078125 5.070312 -4.273438 4.90625 -4.453125 C 4.726562 -4.628906 4.523438 -4.765625 4.296875 -4.859375 C 4.066406 -4.953125 3.820312 -5 3.5625 -5 C 3.300781 -5 3.054688 -4.953125 2.828125 -4.859375 C 2.597656 -4.765625 2.398438 -4.628906 2.234375 -4.453125 C 2.054688 -4.273438 1.921875 -4.078125 1.828125 -3.859375 C 1.722656 -3.628906 1.671875 -3.382812 1.671875 -3.125 C 1.671875 -2.851562 1.722656 -2.609375 1.828125 -2.390625 C 1.921875 -2.160156 2.054688 -1.957031 2.234375 -1.78125 C 2.398438 -1.601562 2.597656 -1.46875 2.828125 -1.375 C 3.054688 -1.28125 3.300781 -1.234375 3.5625 -1.234375 C 3.820312 -1.234375 4.066406 -1.28125 4.296875 -1.375 C 4.523438 -1.46875 4.726562 -1.601562 4.90625 -1.78125 C 5.070312 -1.957031 5.207031 -2.160156 5.3125 -2.390625 C 5.40625 -2.609375 5.453125 -2.851562 5.453125 -3.125 Z M 5.453125 -3.125 "/></g></g></g><g fill="#ffffff" fill-opacity="1"><g transform="translate(191.336934, 220.39711)"><g><path d="M 1.671875 -5.015625 L 1.671875 -3.734375 L 4.796875 -3.734375 L 4.796875 -2.515625 L 1.671875 -2.515625 L 1.671875 0 L 0.453125 0 L 0.453125 -6.25 L 6.15625 -6.25 L 6.15625 -5.015625 Z M 1.671875 -5.015625 "/></g></g></g><g fill="#ffffff" fill-opacity="1"><g transform="translate(197.931527, 220.39711)"><g/></g></g><g fill="#ffffff" fill-opacity="1"><g transform="translate(201.348969, 220.39711)"><g><path d="M 6.734375 -0.734375 L 5.9375 0.203125 L 5.140625 -0.484375 C 4.898438 -0.347656 4.644531 -0.242188 4.375 -0.171875 C 4.113281 -0.0859375 3.84375 -0.046875 3.5625 -0.046875 C 3.132812 -0.046875 2.726562 -0.128906 2.34375 -0.296875 C 1.96875 -0.460938 1.640625 -0.6875 1.359375 -0.96875 C 1.078125 -1.25 0.851562 -1.578125 0.6875 -1.953125 C 0.53125 -2.335938 0.453125 -2.742188 0.453125 -3.171875 C 0.453125 -3.597656 0.53125 -4 0.6875 -4.375 C 0.851562 -4.757812 1.078125 -5.09375 1.359375 -5.375 C 1.640625 -5.65625 1.96875 -5.878906 2.34375 -6.046875 C 2.726562 -6.203125 3.132812 -6.28125 3.5625 -6.28125 C 3.988281 -6.28125 4.394531 -6.203125 4.78125 -6.046875 C 5.15625 -5.878906 5.484375 -5.65625 5.765625 -5.375 C 6.046875 -5.09375 6.269531 -4.757812 6.4375 -4.375 C 6.601562 -4 6.6875 -3.597656 6.6875 -3.171875 C 6.6875 -2.828125 6.628906 -2.5 6.515625 -2.1875 C 6.410156 -1.863281 6.257812 -1.570312 6.0625 -1.3125 Z M 4.4375 -2.703125 L 5.125 -2.109375 C 5.34375 -2.429688 5.453125 -2.785156 5.453125 -3.171875 C 5.453125 -3.429688 5.40625 -3.675781 5.3125 -3.90625 C 5.207031 -4.132812 5.070312 -4.332031 4.90625 -4.5 C 4.726562 -4.675781 4.523438 -4.816406 4.296875 -4.921875 C 4.066406 -5.015625 3.820312 -5.0625 3.5625 -5.0625 C 3.300781 -5.0625 3.054688 -5.015625 2.828125 -4.921875 C 2.597656 -4.816406 2.398438 -4.675781 2.234375 -4.5 C 2.054688 -4.332031 1.921875 -4.132812 1.828125 -3.90625 C 1.722656 -3.675781 1.671875 -3.429688 1.671875 -3.171875 C 1.671875 -2.910156 1.722656 -2.664062 1.828125 -2.4375 C 1.921875 -2.207031 2.054688 -2.003906 2.234375 -1.828125 C 2.398438 -1.660156 2.597656 -1.53125 2.828125 -1.4375 C 3.054688 -1.332031 3.300781 -1.28125 3.5625 -1.28125 C 3.75 -1.28125 3.929688 -1.304688 4.109375 -1.359375 L 3.640625 -1.765625 Z M 4.4375 -2.703125 "/></g></g></g><g fill="#ffffff" fill-opacity="1"><g transform="translate(208.522042, 220.39711)"><g><path d="M 6.5 -6.234375 L 6.5 -1.875 C 6.5 -1.613281 6.453125 -1.375 6.359375 -1.15625 C 6.253906 -0.925781 6.117188 -0.722656 5.953125 -0.546875 C 5.773438 -0.378906 5.578125 -0.25 5.359375 -0.15625 C 5.117188 -0.0507812 4.875 0 4.625 0 L 2.328125 0 C 2.066406 0 1.820312 -0.0507812 1.59375 -0.15625 C 1.363281 -0.25 1.164062 -0.378906 1 -0.546875 C 0.820312 -0.722656 0.6875 -0.925781 0.59375 -1.15625 C 0.5 -1.375 0.453125 -1.613281 0.453125 -1.875 L 0.453125 -6.234375 L 1.671875 -6.234375 L 1.671875 -1.875 C 1.671875 -1.695312 1.738281 -1.546875 1.875 -1.421875 C 2 -1.296875 2.148438 -1.234375 2.328125 -1.234375 L 4.625 -1.234375 C 4.800781 -1.234375 4.953125 -1.296875 5.078125 -1.421875 C 5.203125 -1.546875 5.265625 -1.695312 5.265625 -1.875 L 5.265625 -6.234375 Z M 6.5 -6.234375 "/></g></g></g><g fill="#ffffff" fill-opacity="1"><g transform="translate(215.454824, 220.39711)"><g><path d="M 7.21875 0 L 5.875 0 L 5.21875 -1.484375 L 2.453125 -1.484375 L 1.796875 0 L 0.453125 0 L 3.234375 -6.25 L 4.421875 -6.25 Z M 3.84375 -4.5625 L 3 -2.703125 L 4.671875 -2.703125 Z M 3.84375 -4.5625 "/></g></g></g><g fill="#ffffff" fill-opacity="1"><g transform="translate(223.117373, 220.39711)"><g><path d="M 5.9375 -1.234375 L 5.9375 0 L 0.453125 0 L 0.453125 -6.234375 L 1.671875 -6.234375 L 1.671875 -1.234375 Z M 5.9375 -1.234375 "/></g></g></g><g fill="#ffffff" fill-opacity="1"><g transform="translate(229.489476, 220.39711)"><g><path d="M 0.453125 0 L 0.453125 -6.234375 L 1.671875 -6.234375 L 1.671875 0 Z M 0.453125 0 "/></g></g></g><g fill="#ffffff" fill-opacity="1"><g transform="translate(231.607577, 220.39711)"><g><path d="M 6.296875 -6.234375 L 6.296875 -5.015625 L 3.984375 -5.015625 L 3.984375 0 L 2.765625 0 L 2.765625 -5.015625 L 0.453125 -5.015625 L 0.453125 -6.234375 Z M 6.296875 -6.234375 "/></g></g></g><g fill="#ffffff" fill-opacity="1"><g transform="translate(238.344563, 220.39711)"><g><path d="M 7.65625 -6.234375 L 4.671875 -2.703125 L 4.671875 0 L 3.4375 0 L 3.4375 -2.703125 L 0.453125 -6.234375 L 2.0625 -6.234375 L 4.046875 -3.890625 L 6.0625 -6.234375 Z M 7.65625 -6.234375 "/></g></g></g><g fill="#ffffff" fill-opacity="1"><g transform="translate(246.443188, 220.39711)"><g/></g></g><g fill="#ffffff" fill-opacity="1"><g transform="translate(249.86063, 220.39711)"><g><path d="M 7.109375 -6.234375 L 4.296875 0 L 3.078125 0 L 0.453125 -6.234375 L 1.765625 -6.234375 L 3.703125 -1.671875 L 5.765625 -6.234375 Z M 7.109375 -6.234375 "/></g></g></g><g fill="#ffffff" fill-opacity="1"><g transform="translate(257.407481, 220.39711)"><g><path d="M 1.671875 -5.015625 L 1.671875 -3.734375 L 4.796875 -3.734375 L 4.796875 -2.515625 L 1.671875 -2.515625 L 1.671875 -1.234375 L 6.15625 -1.234375 L 6.15625 0 L 0.453125 0 L 0.453125 -6.25 L 6.15625 -6.25 L 6.15625 -5.015625 Z M 1.671875 -5.015625 "/></g></g></g><g fill="#ffffff" fill-opacity="1"><g transform="translate(264.002074, 220.39711)"><g><path d="M 6.5 -6.234375 L 6.5 0 L 5.265625 0 L 5.265625 -2.328125 L 1.671875 -2.328125 L 1.671875 0 L 0.453125 0 L 0.453125 -6.234375 L 1.671875 -6.234375 L 1.671875 -3.546875 L 5.265625 -3.546875 L 5.265625 -6.234375 Z M 6.5 -6.234375 "/></g></g></g><g fill="#ffffff" fill-opacity="1"><g transform="translate(270.92595, 220.39711)"><g><path d="M 0.453125 0 L 0.453125 -6.234375 L 1.671875 -6.234375 L 1.671875 0 Z M 0.453125 0 "/></g></g></g><g fill="#ffffff" fill-opacity="1"><g transform="translate(273.044051, 220.39711)"><g><path d="M 5.46875 -2.546875 L 6.46875 -1.859375 L 6.125 -1.359375 C 5.832031 -0.929688 5.460938 -0.597656 5.015625 -0.359375 C 4.566406 -0.117188 4.082031 0 3.5625 0 C 3.132812 0 2.726562 -0.0820312 2.34375 -0.25 C 1.96875 -0.40625 1.640625 -0.628906 1.359375 -0.921875 C 1.078125 -1.203125 0.851562 -1.53125 0.6875 -1.90625 C 0.53125 -2.28125 0.453125 -2.6875 0.453125 -3.125 C 0.453125 -3.550781 0.53125 -3.953125 0.6875 -4.328125 C 0.851562 -4.710938 1.078125 -5.046875 1.359375 -5.328125 C 1.640625 -5.609375 1.96875 -5.832031 2.34375 -6 C 2.726562 -6.15625 3.132812 -6.234375 3.5625 -6.234375 C 4.082031 -6.234375 4.566406 -6.113281 5.015625 -5.875 C 5.460938 -5.632812 5.832031 -5.304688 6.125 -4.890625 L 6.46875 -4.375 L 5.46875 -3.6875 L 5.125 -4.1875 C 4.945312 -4.445312 4.71875 -4.648438 4.4375 -4.796875 C 4.164062 -4.929688 3.875 -5 3.5625 -5 C 3.300781 -5 3.054688 -4.953125 2.828125 -4.859375 C 2.597656 -4.765625 2.398438 -4.628906 2.234375 -4.453125 C 2.054688 -4.273438 1.921875 -4.078125 1.828125 -3.859375 C 1.722656 -3.628906 1.671875 -3.382812 1.671875 -3.125 C 1.671875 -2.851562 1.722656 -2.609375 1.828125 -2.390625 C 1.921875 -2.160156 2.054688 -1.957031 2.234375 -1.78125 C 2.398438 -1.601562 2.597656 -1.46875 2.828125 -1.375 C 3.054688 -1.28125 3.300781 -1.234375 3.5625 -1.234375 C 3.875 -1.234375 4.164062 -1.300781 4.4375 -1.4375 C 4.71875 -1.582031 4.945312 -1.785156 5.125 -2.046875 Z M 5.46875 -2.546875 "/></g></g></g><g fill="#ffffff" fill-opacity="1"><g transform="translate(279.959032, 220.39711)"><g><path d="M 5.9375 -1.234375 L 5.9375 0 L 0.453125 0 L 0.453125 -6.234375 L 1.671875 -6.234375 L 1.671875 -1.234375 Z M 5.9375 -1.234375 "/></g></g></g><g fill="#ffffff" fill-opacity="1"><g transform="translate(286.331135, 220.39711)"><g><path d="M 1.671875 -5.015625 L 1.671875 -3.734375 L 4.796875 -3.734375 L 4.796875 -2.515625 L 1.671875 -2.515625 L 1.671875 -1.234375 L 6.15625 -1.234375 L 6.15625 0 L 0.453125 0 L 0.453125 -6.25 L 6.15625 -6.25 L 6.15625 -5.015625 Z M 1.671875 -5.015625 "/></g></g></g><g fill="#ffffff" fill-opacity="1"><g transform="translate(292.925728, 220.39711)"><g><path d="M 5.109375 -3.90625 L 5.109375 -4.5 C 5.109375 -4.644531 5.0625 -4.765625 4.96875 -4.859375 C 4.863281 -4.960938 4.742188 -5.015625 4.609375 -5.015625 L 2.171875 -5.015625 C 2.035156 -5.015625 1.921875 -4.960938 1.828125 -4.859375 C 1.722656 -4.765625 1.671875 -4.644531 1.671875 -4.5 L 1.671875 -4.234375 C 1.671875 -4.097656 1.722656 -3.984375 1.828125 -3.890625 C 1.921875 -3.785156 2.035156 -3.734375 2.171875 -3.734375 L 4.609375 -3.734375 C 4.847656 -3.734375 5.070312 -3.6875 5.28125 -3.59375 C 5.488281 -3.5 5.671875 -3.375 5.828125 -3.21875 C 5.984375 -3.070312 6.109375 -2.894531 6.203125 -2.6875 C 6.285156 -2.46875 6.328125 -2.238281 6.328125 -2 L 6.328125 -1.734375 C 6.328125 -1.492188 6.285156 -1.269531 6.203125 -1.0625 C 6.109375 -0.84375 5.984375 -0.65625 5.828125 -0.5 C 5.671875 -0.351562 5.488281 -0.234375 5.28125 -0.140625 C 5.070312 -0.046875 4.847656 0 4.609375 0 L 2.171875 0 C 1.929688 0 1.707031 -0.046875 1.5 -0.140625 C 1.289062 -0.234375 1.109375 -0.351562 0.953125 -0.5 C 0.796875 -0.65625 0.675781 -0.84375 0.59375 -1.0625 C 0.5 -1.269531 0.453125 -1.492188 0.453125 -1.734375 L 0.453125 -2.34375 L 1.671875 -2.34375 L 1.671875 -1.734375 C 1.671875 -1.585938 1.722656 -1.46875 1.828125 -1.375 C 1.921875 -1.28125 2.035156 -1.234375 2.171875 -1.234375 L 4.609375 -1.234375 C 4.742188 -1.234375 4.863281 -1.28125 4.96875 -1.375 C 5.0625 -1.46875 5.109375 -1.585938 5.109375 -1.734375 L 5.109375 -2 C 5.109375 -2.132812 5.0625 -2.253906 4.96875 -2.359375 C 4.863281 -2.453125 4.742188 -2.5 4.609375 -2.5 L 2.171875 -2.5 C 1.929688 -2.5 1.707031 -2.546875 1.5 -2.640625 C 1.289062 -2.734375 1.109375 -2.859375 0.953125 -3.015625 C 0.796875 -3.160156 0.675781 -3.34375 0.59375 -3.5625 C 0.5 -3.769531 0.453125 -3.992188 0.453125 -4.234375 L 0.453125 -4.5 C 0.453125 -4.738281 0.5 -4.96875 0.59375 -5.1875 C 0.675781 -5.394531 0.796875 -5.578125 0.953125 -5.734375 C 1.109375 -5.878906 1.289062 -6 1.5 -6.09375 C 1.707031 -6.1875 1.929688 -6.234375 2.171875 -6.234375 L 4.609375 -6.234375 C 4.847656 -6.234375 5.070312 -6.1875 5.28125 -6.09375 C 5.488281 -6 5.671875 -5.878906 5.828125 -5.734375 C 5.984375 -5.578125 6.109375 -5.394531 6.203125 -5.1875 C 6.285156 -4.96875 6.328125 -4.738281 6.328125 -4.5 L 6.328125 -3.90625 Z M 5.109375 -3.90625 "/></g></g></g></svg>